<svg width="15" height="16" viewBox="0 0 15 16" fill="none" xmlns="http://www.w3.org/2000/svg">
<path d="M13.4375 0.96875H4.4375C4.21372 0.96875 3.99911 1.05764 3.84088 1.21588C3.68264 1.37411 3.59375 1.58872 3.59375 1.8125V4.34375H1.0625C0.838724 4.34375 0.624112 4.43264 0.465879 4.59088C0.307645 4.74911 0.21875 4.96372 0.21875 5.1875V14.1875C0.21875 14.4113 0.307645 14.6259 0.465879 14.7841C0.624112 14.9424 0.838724 15.0312 1.0625 15.0312H10.0625C10.2863 15.0312 10.5009 14.9424 10.6591 14.7841C10.8174 14.6259 10.9062 14.4113 10.9062 14.1875V11.6562H13.4375C13.6613 11.6562 13.8759 11.5674 14.0341 11.4091C14.1924 11.2509 14.2812 11.0363 14.2812 10.8125V1.8125C14.2812 1.58872 14.1924 1.37411 14.0341 1.21588C13.8759 1.05764 13.6613 0.96875 13.4375 0.96875ZM9.21875 13.3438H1.90625V6.03125H9.21875V13.3438ZM12.5938 9.96875H10.9062V5.1875C10.9062 4.96372 10.8174 4.74911 10.6591 4.59088C10.5009 4.43264 10.2863 4.34375 10.0625 4.34375H5.28125V2.65625H12.5938V9.96875Z" fill="#0077B6"/>
</svg>
