<svg width="20" height="20" viewBox="0 0 20 20" fill="none" xmlns="http://www.w3.org/2000/svg">
<path d="M18.25 0.625H6.25C5.95163 0.625 5.66548 0.743526 5.4545 0.954505C5.24353 1.16548 5.125 1.45163 5.125 1.75V5.125H1.75C1.45163 5.125 1.16548 5.24353 0.954505 5.4545C0.743526 5.66548 0.625 5.95163 0.625 6.25V18.25C0.625 18.5484 0.743526 18.8345 0.954505 19.0455C1.16548 19.2565 1.45163 19.375 1.75 19.375H13.75C14.0484 19.375 14.3345 19.2565 14.5455 19.0455C14.7565 18.8345 14.875 18.5484 14.875 18.25V14.875H18.25C18.5484 14.875 18.8345 14.7565 19.0455 14.5455C19.2565 14.3345 19.375 14.0484 19.375 13.75V1.75C19.375 1.45163 19.2565 1.16548 19.0455 0.954505C18.8345 0.743526 18.5484 0.625 18.25 0.625ZM12.625 17.125H2.875V7.375H12.625V17.125ZM17.125 12.625H14.875V6.25C14.875 5.95163 14.7565 5.66548 14.5455 5.4545C14.3345 5.24353 14.0484 5.125 13.75 5.125H7.375V2.875H17.125V12.625Z" fill="#004B76"/>
</svg>
